<svg width="24" height="28" viewBox="0 0 24 28" fill="none" xmlns="http://www.w3.org/2000/svg">
<path fill-rule="evenodd" clip-rule="evenodd" d="M3.50083 17.7871V17.5681C3.53295 16.9202 3.7406 16.2925 4.10236 15.7496C4.7045 15.0975 5.1167 14.2983 5.29571 13.436C5.29571 12.7695 5.29571 12.0935 5.35393 11.427C5.65469 8.21842 8.82728 6 11.9611 6H12.0387C15.1725 6 18.345 8.21842 18.6555 11.427C18.7137 12.0935 18.6555 12.7695 18.704 13.436C18.8854 14.3003 19.2972 15.1019 19.8974 15.7591C20.2618 16.2972 20.4698 16.9227 20.4989 17.5681V17.7776C20.5206 18.648 20.2208 19.4968 19.6548 20.1674C18.907 20.9515 17.8921 21.4393 16.8024 21.5384C13.607 21.8812 10.383 21.8812 7.18762 21.5384C6.09914 21.435 5.08576 20.9479 4.33521 20.1674C3.778 19.4963 3.48224 18.6526 3.50083 17.7871Z" stroke="#A9B1C9" stroke-width="1.5" stroke-linecap="round" stroke-linejoin="round"/>
<path d="M9.55493 24.8518C10.0542 25.4785 10.7874 25.884 11.5922 25.9788C12.3971 26.0735 13.2072 25.8495 13.8433 25.3564C14.0389 25.2106 14.2149 25.041 14.3672 24.8518" stroke="#A9B1C9" stroke-width="1.5" stroke-linecap="round" stroke-linejoin="round"/>
<circle cx="17" cy="6" r="5.5" fill="#E83842" stroke="white"/>
<path d="M17.0639 9.07955C18.3594 9.08523 19.2429 8.2358 19.2401 7.05114C19.2429 5.96023 18.4815 5.1733 17.4503 5.1733C16.8111 5.1733 16.2457 5.48011 15.9844 5.99432H15.9446C15.9503 4.8608 16.348 4.15625 17.1065 4.15625C17.5526 4.15625 17.8736 4.40057 17.9673 4.80682H19.1804C19.0639 3.84943 18.2685 3.10227 17.1065 3.10227C15.669 3.10227 14.7457 4.26705 14.7401 6.22159C14.7372 8.35227 15.8679 9.07386 17.0639 9.07955ZM17.0582 8.11364C16.4901 8.11364 16.0696 7.65625 16.0696 7.08807C16.0724 6.52273 16.5014 6.0625 17.0668 6.0625C17.6349 6.0625 18.0497 6.50852 18.0469 7.08523C18.0497 7.66761 17.6264 8.11364 17.0582 8.11364Z" fill="white"/>
</svg>
